<?xml version="1.0" standalone="no"?>
<!DOCTYPE svg PUBLIC "-//W3C//DTD SVG 20010904//EN"
 "http://www.w3.org/TR/2001/REC-SVG-20010904/DTD/svg10.dtd">
<svg version="1.0" xmlns="http://www.w3.org/2000/svg"
 width="480.000000pt" height="480.000000pt" viewBox="0 0 480.000000 480.000000"
 preserveAspectRatio="xMidYMid meet">
<metadata>
Created by potrace 1.11, written by Peter Selinger 2001-2013
</metadata>
<g transform="translate(0.000000,480.000000) scale(0.100000,-0.100000)"
fill="#000000" stroke="none">
<path d="M2337 4754 c-1 -1 -47 -5 -102 -8 -54 -4 -101 -9 -105 -10 -3 -2 -29
-7 -59 -10 -30 -4 -64 -9 -75 -12 -12 -3 -34 -7 -51 -9 -16 -2 -31 -4 -32 -6
-4 -2 -11 -4 -58 -14 -50 -11 -47 -10 -65 -18 -8 -3 -44 -14 -80 -23 -36 -9
-74 -22 -85 -28 -11 -5 -29 -11 -40 -13 -10 -2 -23 -9 -27 -16 -4 -6 -8 -9 -8
-5 0 15 -283 -118 -365 -172 -16 -11 -37 -23 -45 -27 -23 -11 -170 -112 -220
-152 -24 -20 -53 -43 -63 -51 -57 -45 -215 -202 -264 -264 -32 -39 -60 -73
-63 -76 -9 -8 -134 -200 -174 -267 -20 -35 -62 -114 -91 -177 -64 -134 -105
-239 -154 -401 -16 -51 -53 -228 -56 -270 -2 -22 -4 -40 -5 -40 -4 0 -10 -101
-11 -190 -1 -114 5 -200 20 -265 5 -25 12 -56 15 -70 11 -61 52 -173 94 -260
26 -52 49 -97 52 -100 3 -3 12 -18 20 -34 29 -56 35 -66 42 -66 5 0 8 -5 8
-11 0 -20 217 -319 232 -319 4 0 8 -6 8 -12 0 -7 20 -34 43 -59 23 -25 71 -79
107 -119 82 -93 210 -217 344 -334 32 -28 64 -56 70 -61 6 -6 36 -30 66 -55
30 -25 57 -48 58 -52 2 -5 8 -8 13 -8 5 0 23 -12 40 -27 52 -46 54 -48 70 -58
13 -8 236 -174 274 -203 40 -31 202 -132 212 -132 7 0 13 -3 13 -8 0 -4 15
-13 33 -21 17 -8 34 -17 37 -21 4 -5 61 -30 225 -101 11 -5 31 -11 45 -13 14
-3 26 -5 28 -7 1 -1 5 -2 10 -3 132 -34 261 -38 361 -12 98 25 306 126 486
236 33 20 71 43 85 51 14 8 27 16 30 19 3 3 34 25 70 49 89 60 154 105 160
111 3 3 52 41 110 84 58 44 107 82 110 86 3 3 37 31 75 62 209 170 446 400
557 539 14 19 35 44 45 56 11 12 28 34 39 48 10 15 24 32 29 39 16 18 135 194
135 200 0 3 13 24 29 48 27 40 120 228 126 252 1 6 5 20 9 31 5 11 10 27 14
35 3 8 4 18 4 23 -1 4 2 7 6 7 4 0 8 8 9 18 1 9 11 53 22 97 11 44 23 112 26
150 11 117 6 367 -9 443 -3 15 -8 45 -11 67 -3 23 -8 52 -11 65 -3 14 -7 36
-10 50 -14 71 -48 197 -57 208 -5 6 -7 12 -3 12 7 0 -12 53 -61 169 -55 132
-197 383 -260 461 -7 8 -26 33 -43 55 -92 121 -260 294 -380 391 -79 64 -233
172 -311 216 -44 26 -189 101 -199 104 -3 0 -22 8 -42 17 -71 32 -113 49 -128
52 -8 2 -35 11 -60 20 -57 21 -224 65 -270 71 -19 3 -49 10 -66 15 -18 5 -36
9 -40 8 -5 -2 -27 0 -49 4 -80 14 -396 30 -408 21z"/>
</g>
</svg>
